<?xml version="1.0" encoding="UTF-8" standalone="no"?><svg xmlns="http://www.w3.org/2000/svg" xmlns:xlink="http://www.w3.org/1999/xlink" contentScriptType="application/ecmascript" contentStyleType="text/css" height="306px" preserveAspectRatio="none" style="width:417px;height:306px;" version="1.1" viewBox="0 0 417 306" width="417px" zoomAndPan="magnify"><defs><filter height="300%" id="f1at3x6vkt450k" width="300%" x="-1" y="-1"><feGaussianBlur result="blurOut" stdDeviation="2.0"/><feColorMatrix in="blurOut" result="blurOut2" type="matrix" values="0 0 0 0 0 0 0 0 0 0 0 0 0 0 0 0 0 0 .4 0"/><feOffset dx="4.0" dy="4.0" in="blurOut2" result="blurOut3"/><feBlend in="SourceGraphic" in2="blurOut3" mode="normal"/></filter></defs><g><!--MD5=[6a3bf63af39c3179cd22a6db35b75f44]
entity Пользователь--><ellipse cx="106" cy="17.5" fill="#FEFECE" filter="url(#f1at3x6vkt450k)" rx="8" ry="8" style="stroke: #A80036; stroke-width: 1.5;"/><path d="M106,25.5 L106,52.5 M93,33.5 L119,33.5 M106,52.5 L93,67.5 M106,52.5 L119,67.5 " fill="none" filter="url(#f1at3x6vkt450k)" style="stroke: #A80036; stroke-width: 1.5;"/><text fill="#000000" font-family="sans-serif" font-size="14" lengthAdjust="spacingAndGlyphs" textLength="96" x="58" y="85.9883">Пользователь</text><ellipse cx="106.1315" cy="170.1263" fill="#FEFECE" filter="url(#f1at3x6vkt450k)" rx="81.1315" ry="18.6263" style="stroke: #A80036; stroke-width: 1.5;"/><text fill="#000000" font-family="sans-serif" font-size="14" lengthAdjust="spacingAndGlyphs" textLength="133" x="39.6315" y="174.8294">Искать объявления</text><ellipse cx="106.089" cy="273.4178" fill="#FEFECE" filter="url(#f1at3x6vkt450k)" rx="100.089" ry="22.4178" style="stroke: #A80036; stroke-width: 1.5;"/><text fill="#000000" font-family="sans-serif" font-size="14" lengthAdjust="spacingAndGlyphs" textLength="176" x="18.089" y="278.1209">Просмотреть объявление</text><!--MD5=[0e6d6e3449c0efd1c3cf7b3d6ca5d8a8]
entity Робот--><ellipse cx="314" cy="17.5" fill="#FEFECE" filter="url(#f1at3x6vkt450k)" rx="8" ry="8" style="stroke: #A80036; stroke-width: 1.5;"/><path d="M314,25.5 L314,52.5 M301,33.5 L327,33.5 M314,52.5 L301,67.5 M314,52.5 L327,67.5 " fill="none" filter="url(#f1at3x6vkt450k)" style="stroke: #A80036; stroke-width: 1.5;"/><text fill="#000000" font-family="sans-serif" font-size="14" lengthAdjust="spacingAndGlyphs" textLength="41" x="293.5" y="85.9883">Робот</text><ellipse cx="314.0128" cy="169.8026" fill="#FEFECE" filter="url(#f1at3x6vkt450k)" rx="92.0128" ry="20.8026" style="stroke: #A80036; stroke-width: 1.5;"/><text fill="#000000" font-family="sans-serif" font-size="14" lengthAdjust="spacingAndGlyphs" textLength="158" x="235.0128" y="174.5057">Загружать объявления</text><!--MD5=[975bc4b138761fc2d03d176332ecee4f]
link Пользователь to search--><path d="M106,89.2957 C106,110.2534 106,134.7752 106,151.2404 " fill="none" id="Пользователь-search" style="stroke: #A80036; stroke-width: 1.0;"/><!--MD5=[a08908d3aaf33a010ee7d0c9aee1e5db]
link search to view--><path d="M106,188.5037 C106,204.3119 106,227.2978 106,245.3812 " fill="none" id="search-&gt;view" style="stroke: #A80036; stroke-width: 1.0;"/><polygon fill="#A80036" points="106,250.8225,110,241.8225,106,245.8225,102,241.8225,106,250.8225" style="stroke: #A80036; stroke-width: 1.0;"/><!--MD5=[b70dd0c82bbe403bd2702cd0ec32a15e]
link Робот to load--><path d="M314,89.2957 C314,109.2882 314,132.5242 314,148.9155 " fill="none" id="Робот-load" style="stroke: #A80036; stroke-width: 1.0;"/><!--MD5=[63deb14fd9d715e7e464ef2b77fc1886]
@startuml usecases

:Пользователь:
(Искать объявления) as search
(Просмотреть объявление) as view
:Пользователь: - - search
search - -> view


:Робот:

(Загружать объявления) as load
:Робот: - - load
@enduml

PlantUML version 1.2020.09(Sun May 10 14:51:06 SAMT 2020)
(GPL source distribution)
Java Runtime: OpenJDK Runtime Environment
JVM: OpenJDK 64-Bit Server VM
Java Version: 11.0.10+9-suse-lp152.2.9.1-x8664
Operating System: Linux
Default Encoding: UTF-8
Language: ru
Country: RU
--></g></svg>